<svg width="49" height="49" viewBox="0 0 49 49" fill="none" xmlns="http://www.w3.org/2000/svg">
<g clip-path="url(#clip0_1157_14458)">
<rect x="4.0293" y="4.48828" width="40" height="40" rx="20" fill="#BCD3ED"/>
<mask id="path-2-inside-1_1157_14458" fill="white">
<path d="M19.6293 16.4883C15.9905 16.4883 13.0293 19.4243 13.0293 23.0337V23.761C13.0293 24.321 13.2507 24.8282 13.6036 25.2156C13.2507 25.6029 13.0293 26.1101 13.0293 26.6701V27.3974C13.0293 30.2039 15.332 32.4883 18.1626 32.4883H29.896C32.7266 32.4883 35.0293 30.2039 35.0293 27.3974V26.6701C35.0293 26.1101 34.8079 25.6029 34.4549 25.2156C34.8079 24.8282 35.0293 24.321 35.0293 23.761V23.0337C35.0293 19.4243 32.0681 16.4883 28.4293 16.4883H19.6293ZM19.6293 17.9428H28.4293C30.4817 17.9428 32.252 19.1459 33.0728 20.8761C32.9919 20.867 32.9125 20.8519 32.8293 20.8519C32.382 20.8519 31.9708 20.983 31.6262 21.2085C31.1642 20.5539 30.3946 20.1246 29.5293 20.1246C28.972 20.1246 28.4591 20.3066 28.0411 20.6048C27.5865 19.8848 26.7793 19.3974 25.8626 19.3974C25.144 19.3974 24.4986 19.696 24.0293 20.1687C23.56 19.696 22.9146 19.3974 22.196 19.3974C21.2793 19.3974 20.4721 19.8848 20.0174 20.6048C19.5994 20.3066 19.0866 20.1246 18.5293 20.1246C17.664 20.1246 16.8944 20.5539 16.4324 21.2085C16.0878 20.983 15.6766 20.8519 15.2293 20.8519C15.1461 20.8519 15.0667 20.867 14.9858 20.8761C15.8066 19.1459 17.5769 17.9428 19.6293 17.9428ZM22.196 20.8519C22.8046 20.8519 23.296 21.3392 23.296 21.9428V23.761C23.296 24.161 22.966 24.4883 22.5626 24.4883H21.8293C21.426 24.4883 21.096 24.161 21.096 23.761V21.9428C21.096 21.3392 21.5873 20.8519 22.196 20.8519ZM25.8626 20.8519C26.4713 20.8519 26.9626 21.3392 26.9626 21.9428V23.761C26.9626 24.161 26.6326 24.4883 26.2293 24.4883H25.496C25.0926 24.4883 24.7626 24.161 24.7626 23.761V21.9428C24.7626 21.3392 25.254 20.8519 25.8626 20.8519ZM18.5293 21.5792C19.138 21.5792 19.6293 22.0665 19.6293 22.6701V23.761C19.6293 24.161 19.2993 24.4883 18.896 24.4883H18.1626C17.7593 24.4883 17.4293 24.161 17.4293 23.761V22.6701C17.4293 22.0665 17.9206 21.5792 18.5293 21.5792ZM29.5293 21.5792C30.138 21.5792 30.6293 22.0665 30.6293 22.6701V23.761C30.6293 24.161 30.2993 24.4883 29.896 24.4883H29.1626C28.7593 24.4883 28.4293 24.161 28.4293 23.761V22.6701C28.4293 22.0665 28.9206 21.5792 29.5293 21.5792ZM15.2293 22.3065C15.6326 22.3065 15.9626 22.6337 15.9626 23.0337V23.761C15.9626 24.161 15.6326 24.4883 15.2293 24.4883C14.826 24.4883 14.496 24.161 14.496 23.761V23.0337C14.496 22.6337 14.826 22.3065 15.2293 22.3065ZM32.8293 22.3065C33.2326 22.3065 33.5626 22.6337 33.5626 23.0337V23.761C33.5626 24.161 33.2326 24.4883 32.8293 24.4883C32.426 24.4883 32.096 24.161 32.096 23.761V23.0337C32.096 22.6337 32.426 22.3065 32.8293 22.3065ZM15.2293 25.9428C15.6326 25.9428 15.9626 26.2701 15.9626 26.6701C15.9626 27.0701 15.6326 27.3974 15.2293 27.3974C14.826 27.3974 14.496 27.0701 14.496 26.6701C14.496 26.2701 14.826 25.9428 15.2293 25.9428ZM18.1626 25.9428H18.896C19.2993 25.9428 19.6293 26.2701 19.6293 26.6701V27.3974C19.6293 27.7974 19.2993 28.1246 18.896 28.1246C18.0893 28.1246 17.4293 27.4701 17.4293 26.6701C17.4293 26.2701 17.7593 25.9428 18.1626 25.9428ZM21.8293 25.9428H22.5626C22.966 25.9428 23.296 26.2701 23.296 26.6701V27.3974C23.296 27.7974 22.966 28.1246 22.5626 28.1246H21.8293C21.426 28.1246 21.096 27.7974 21.096 27.3974V26.6701C21.096 26.2701 21.426 25.9428 21.8293 25.9428ZM25.496 25.9428H26.2293C26.6326 25.9428 26.9626 26.2701 26.9626 26.6701V27.3974C26.9626 27.7974 26.6326 28.1246 26.2293 28.1246H25.496C25.0926 28.1246 24.7626 27.7974 24.7626 27.3974V26.6701C24.7626 26.2701 25.0926 25.9428 25.496 25.9428ZM29.1626 25.9428H29.896C30.2993 25.9428 30.6293 26.2701 30.6293 26.6701C30.6293 27.4701 29.9693 28.1246 29.1626 28.1246C28.7593 28.1246 28.4293 27.7974 28.4293 27.3974V26.6701C28.4293 26.2701 28.7593 25.9428 29.1626 25.9428ZM32.8293 25.9428C33.2326 25.9428 33.5626 26.2701 33.5626 26.6701C33.5626 27.0701 33.2326 27.3974 32.8293 27.3974C32.426 27.3974 32.096 27.0701 32.096 26.6701C32.096 26.2701 32.426 25.9428 32.8293 25.9428ZM16.5499 28.4016C17.0925 29.1144 17.9353 29.5792 18.896 29.5792C19.4606 29.5792 19.974 29.3615 20.3626 29.0124C20.7513 29.3615 21.2646 29.5792 21.8293 29.5792H22.5626C23.1273 29.5792 23.6406 29.3615 24.0293 29.0124C24.418 29.3615 24.9313 29.5792 25.496 29.5792H26.2293C26.794 29.5792 27.3073 29.3615 27.696 29.0124C28.0846 29.3615 28.598 29.5792 29.1626 29.5792C30.1233 29.5792 30.9661 29.1144 31.5087 28.4016C31.8754 28.6853 32.3306 28.8519 32.8293 28.8519C32.9821 28.8519 33.1319 28.8363 33.2762 28.8065C32.7201 30.114 31.4144 31.0337 29.896 31.0337H18.1626C16.6442 31.0337 15.3385 30.114 14.7824 28.8065C14.9267 28.8363 15.0765 28.8519 15.2293 28.8519C15.728 28.8519 16.1832 28.6853 16.5499 28.4016Z"/>
</mask>
<path d="M19.6293 16.4883C15.9905 16.4883 13.0293 19.4243 13.0293 23.0337V23.761C13.0293 24.321 13.2507 24.8282 13.6036 25.2156C13.2507 25.6029 13.0293 26.1101 13.0293 26.6701V27.3974C13.0293 30.2039 15.332 32.4883 18.1626 32.4883H29.896C32.7266 32.4883 35.0293 30.2039 35.0293 27.3974V26.6701C35.0293 26.1101 34.8079 25.6029 34.4549 25.2156C34.8079 24.8282 35.0293 24.321 35.0293 23.761V23.0337C35.0293 19.4243 32.0681 16.4883 28.4293 16.4883H19.6293ZM19.6293 17.9428H28.4293C30.4817 17.9428 32.252 19.1459 33.0728 20.8761C32.9919 20.867 32.9125 20.8519 32.8293 20.8519C32.382 20.8519 31.9708 20.983 31.6262 21.2085C31.1642 20.5539 30.3946 20.1246 29.5293 20.1246C28.972 20.1246 28.4591 20.3066 28.0411 20.6048C27.5865 19.8848 26.7793 19.3974 25.8626 19.3974C25.144 19.3974 24.4986 19.696 24.0293 20.1687C23.56 19.696 22.9146 19.3974 22.196 19.3974C21.2793 19.3974 20.4721 19.8848 20.0174 20.6048C19.5994 20.3066 19.0866 20.1246 18.5293 20.1246C17.664 20.1246 16.8944 20.5539 16.4324 21.2085C16.0878 20.983 15.6766 20.8519 15.2293 20.8519C15.1461 20.8519 15.0667 20.867 14.9858 20.8761C15.8066 19.1459 17.5769 17.9428 19.6293 17.9428ZM22.196 20.8519C22.8046 20.8519 23.296 21.3392 23.296 21.9428V23.761C23.296 24.161 22.966 24.4883 22.5626 24.4883H21.8293C21.426 24.4883 21.096 24.161 21.096 23.761V21.9428C21.096 21.3392 21.5873 20.8519 22.196 20.8519ZM25.8626 20.8519C26.4713 20.8519 26.9626 21.3392 26.9626 21.9428V23.761C26.9626 24.161 26.6326 24.4883 26.2293 24.4883H25.496C25.0926 24.4883 24.7626 24.161 24.7626 23.761V21.9428C24.7626 21.3392 25.254 20.8519 25.8626 20.8519ZM18.5293 21.5792C19.138 21.5792 19.6293 22.0665 19.6293 22.6701V23.761C19.6293 24.161 19.2993 24.4883 18.896 24.4883H18.1626C17.7593 24.4883 17.4293 24.161 17.4293 23.761V22.6701C17.4293 22.0665 17.9206 21.5792 18.5293 21.5792ZM29.5293 21.5792C30.138 21.5792 30.6293 22.0665 30.6293 22.6701V23.761C30.6293 24.161 30.2993 24.4883 29.896 24.4883H29.1626C28.7593 24.4883 28.4293 24.161 28.4293 23.761V22.6701C28.4293 22.0665 28.9206 21.5792 29.5293 21.5792ZM15.2293 22.3065C15.6326 22.3065 15.9626 22.6337 15.9626 23.0337V23.761C15.9626 24.161 15.6326 24.4883 15.2293 24.4883C14.826 24.4883 14.496 24.161 14.496 23.761V23.0337C14.496 22.6337 14.826 22.3065 15.2293 22.3065ZM32.8293 22.3065C33.2326 22.3065 33.5626 22.6337 33.5626 23.0337V23.761C33.5626 24.161 33.2326 24.4883 32.8293 24.4883C32.426 24.4883 32.096 24.161 32.096 23.761V23.0337C32.096 22.6337 32.426 22.3065 32.8293 22.3065ZM15.2293 25.9428C15.6326 25.9428 15.9626 26.2701 15.9626 26.6701C15.9626 27.0701 15.6326 27.3974 15.2293 27.3974C14.826 27.3974 14.496 27.0701 14.496 26.6701C14.496 26.2701 14.826 25.9428 15.2293 25.9428ZM18.1626 25.9428H18.896C19.2993 25.9428 19.6293 26.2701 19.6293 26.6701V27.3974C19.6293 27.7974 19.2993 28.1246 18.896 28.1246C18.0893 28.1246 17.4293 27.4701 17.4293 26.6701C17.4293 26.2701 17.7593 25.9428 18.1626 25.9428ZM21.8293 25.9428H22.5626C22.966 25.9428 23.296 26.2701 23.296 26.6701V27.3974C23.296 27.7974 22.966 28.1246 22.5626 28.1246H21.8293C21.426 28.1246 21.096 27.7974 21.096 27.3974V26.6701C21.096 26.2701 21.426 25.9428 21.8293 25.9428ZM25.496 25.9428H26.2293C26.6326 25.9428 26.9626 26.2701 26.9626 26.6701V27.3974C26.9626 27.7974 26.6326 28.1246 26.2293 28.1246H25.496C25.0926 28.1246 24.7626 27.7974 24.7626 27.3974V26.6701C24.7626 26.2701 25.0926 25.9428 25.496 25.9428ZM29.1626 25.9428H29.896C30.2993 25.9428 30.6293 26.2701 30.6293 26.6701C30.6293 27.4701 29.9693 28.1246 29.1626 28.1246C28.7593 28.1246 28.4293 27.7974 28.4293 27.3974V26.6701C28.4293 26.2701 28.7593 25.9428 29.1626 25.9428ZM32.8293 25.9428C33.2326 25.9428 33.5626 26.2701 33.5626 26.6701C33.5626 27.0701 33.2326 27.3974 32.8293 27.3974C32.426 27.3974 32.096 27.0701 32.096 26.6701C32.096 26.2701 32.426 25.9428 32.8293 25.9428ZM16.5499 28.4016C17.0925 29.1144 17.9353 29.5792 18.896 29.5792C19.4606 29.5792 19.974 29.3615 20.3626 29.0124C20.7513 29.3615 21.2646 29.5792 21.8293 29.5792H22.5626C23.1273 29.5792 23.6406 29.3615 24.0293 29.0124C24.418 29.3615 24.9313 29.5792 25.496 29.5792H26.2293C26.794 29.5792 27.3073 29.3615 27.696 29.0124C28.0846 29.3615 28.598 29.5792 29.1626 29.5792C30.1233 29.5792 30.9661 29.1144 31.5087 28.4016C31.8754 28.6853 32.3306 28.8519 32.8293 28.8519C32.9821 28.8519 33.1319 28.8363 33.2762 28.8065C32.7201 30.114 31.4144 31.0337 29.896 31.0337H18.1626C16.6442 31.0337 15.3385 30.114 14.7824 28.8065C14.9267 28.8363 15.0765 28.8519 15.2293 28.8519C15.728 28.8519 16.1832 28.6853 16.5499 28.4016Z" fill="white" stroke="#2B70C9" stroke-width="50" mask="url(#path-2-inside-1_1157_14458)"/>
</g>
<defs>
<clipPath id="clip0_1157_14458">
<rect x="4.0293" y="4.48828" width="40" height="40" rx="20" fill="white"/>
</clipPath>
</defs>
</svg>
