<svg width="49" height="49" viewBox="0 0 49 49" fill="none" xmlns="http://www.w3.org/2000/svg">
<g clip-path="url(#clip0_1157_14460)">
<rect x="4.0293" y="4.48828" width="40" height="40" rx="20" fill="#BCD3ED"/>
<mask id="path-2-inside-1_1157_14460" fill="white">
<path d="M15.2293 24.4883C14.0193 24.4883 13.0293 25.4701 13.0293 26.6701V27.3974C13.0293 30.2039 15.3327 32.4883 18.1626 32.4883H29.896C32.7259 32.4883 35.0293 30.2039 35.0293 27.3974V26.6701C35.0293 25.4701 34.0393 24.4883 32.8293 24.4883C32.2646 24.4883 31.7513 24.706 31.3626 25.055C30.974 24.706 30.4606 24.4883 29.896 24.4883H29.1626C28.598 24.4883 28.0846 24.706 27.696 25.055C27.3073 24.706 26.794 24.4883 26.2293 24.4883H25.496C24.9313 24.4883 24.418 24.706 24.0293 25.055C23.6406 24.706 23.1273 24.4883 22.5626 24.4883H21.8293C21.2646 24.4883 20.7513 24.706 20.3626 25.055C19.974 24.706 19.4606 24.4883 18.896 24.4883H18.1626C17.598 24.4883 17.0846 24.706 16.696 25.055C16.3073 24.706 15.794 24.4883 15.2293 24.4883ZM15.2293 25.9428C15.6326 25.9428 15.9626 26.2701 15.9626 26.6701C15.9626 27.0701 15.6326 27.3974 15.2293 27.3974C14.826 27.3974 14.496 27.0701 14.496 26.6701C14.496 26.2701 14.826 25.9428 15.2293 25.9428ZM18.1626 25.9428H18.896C19.2993 25.9428 19.6293 26.2701 19.6293 26.6701V27.3974C19.6293 27.7974 19.2993 28.1246 18.896 28.1246C18.0893 28.1246 17.4293 27.4701 17.4293 26.6701C17.4293 26.2701 17.7593 25.9428 18.1626 25.9428ZM21.8293 25.9428H22.5626C22.966 25.9428 23.296 26.2701 23.296 26.6701V27.3974C23.296 27.7974 22.966 28.1246 22.5626 28.1246H21.8293C21.426 28.1246 21.096 27.7974 21.096 27.3974V26.6701C21.096 26.2701 21.426 25.9428 21.8293 25.9428ZM25.496 25.9428H26.2293C26.6326 25.9428 26.9626 26.2701 26.9626 26.6701V27.3974C26.9626 27.7974 26.6326 28.1246 26.2293 28.1246H25.496C25.0926 28.1246 24.7626 27.7974 24.7626 27.3974V26.6701C24.7626 26.2701 25.0926 25.9428 25.496 25.9428ZM29.1626 25.9428H29.896C30.2993 25.9428 30.6293 26.2701 30.6293 26.6701C30.6293 27.4701 29.9693 28.1246 29.1626 28.1246C28.7593 28.1246 28.4293 27.7974 28.4293 27.3974V26.6701C28.4293 26.2701 28.7593 25.9428 29.1626 25.9428ZM32.8293 25.9428C33.2326 25.9428 33.5626 26.2701 33.5626 26.6701C33.5626 27.0701 33.2326 27.3974 32.8293 27.3974C32.426 27.3974 32.096 27.0701 32.096 26.6701C32.096 26.2701 32.426 25.9428 32.8293 25.9428ZM16.5499 28.4016C17.0925 29.1144 17.9353 29.5792 18.896 29.5792C19.4606 29.5792 19.974 29.3615 20.3626 29.0124C20.7513 29.3615 21.2646 29.5792 21.8293 29.5792H22.5626C23.1273 29.5792 23.6406 29.3615 24.0293 29.0124C24.418 29.3615 24.9313 29.5792 25.496 29.5792H26.2293C26.794 29.5792 27.3073 29.3615 27.696 29.0124C28.0846 29.3615 28.598 29.5792 29.1626 29.5792C30.1233 29.5792 30.9661 29.1144 31.5087 28.4016C31.8754 28.6853 32.3306 28.8519 32.8293 28.8519C32.9821 28.8519 33.1319 28.8363 33.2762 28.8065C32.7201 30.114 31.4144 31.0337 29.896 31.0337H18.1626C16.6442 31.0337 15.3385 30.114 14.7824 28.8065C14.9267 28.8363 15.0765 28.8519 15.2293 28.8519C15.728 28.8519 16.1832 28.6853 16.5499 28.4016Z"/>
</mask>
<path d="M15.2293 24.4883C14.0193 24.4883 13.0293 25.4701 13.0293 26.6701V27.3974C13.0293 30.2039 15.3327 32.4883 18.1626 32.4883H29.896C32.7259 32.4883 35.0293 30.2039 35.0293 27.3974V26.6701C35.0293 25.4701 34.0393 24.4883 32.8293 24.4883C32.2646 24.4883 31.7513 24.706 31.3626 25.055C30.974 24.706 30.4606 24.4883 29.896 24.4883H29.1626C28.598 24.4883 28.0846 24.706 27.696 25.055C27.3073 24.706 26.794 24.4883 26.2293 24.4883H25.496C24.9313 24.4883 24.418 24.706 24.0293 25.055C23.6406 24.706 23.1273 24.4883 22.5626 24.4883H21.8293C21.2646 24.4883 20.7513 24.706 20.3626 25.055C19.974 24.706 19.4606 24.4883 18.896 24.4883H18.1626C17.598 24.4883 17.0846 24.706 16.696 25.055C16.3073 24.706 15.794 24.4883 15.2293 24.4883ZM15.2293 25.9428C15.6326 25.9428 15.9626 26.2701 15.9626 26.6701C15.9626 27.0701 15.6326 27.3974 15.2293 27.3974C14.826 27.3974 14.496 27.0701 14.496 26.6701C14.496 26.2701 14.826 25.9428 15.2293 25.9428ZM18.1626 25.9428H18.896C19.2993 25.9428 19.6293 26.2701 19.6293 26.6701V27.3974C19.6293 27.7974 19.2993 28.1246 18.896 28.1246C18.0893 28.1246 17.4293 27.4701 17.4293 26.6701C17.4293 26.2701 17.7593 25.9428 18.1626 25.9428ZM21.8293 25.9428H22.5626C22.966 25.9428 23.296 26.2701 23.296 26.6701V27.3974C23.296 27.7974 22.966 28.1246 22.5626 28.1246H21.8293C21.426 28.1246 21.096 27.7974 21.096 27.3974V26.6701C21.096 26.2701 21.426 25.9428 21.8293 25.9428ZM25.496 25.9428H26.2293C26.6326 25.9428 26.9626 26.2701 26.9626 26.6701V27.3974C26.9626 27.7974 26.6326 28.1246 26.2293 28.1246H25.496C25.0926 28.1246 24.7626 27.7974 24.7626 27.3974V26.6701C24.7626 26.2701 25.0926 25.9428 25.496 25.9428ZM29.1626 25.9428H29.896C30.2993 25.9428 30.6293 26.2701 30.6293 26.6701C30.6293 27.4701 29.9693 28.1246 29.1626 28.1246C28.7593 28.1246 28.4293 27.7974 28.4293 27.3974V26.6701C28.4293 26.2701 28.7593 25.9428 29.1626 25.9428ZM32.8293 25.9428C33.2326 25.9428 33.5626 26.2701 33.5626 26.6701C33.5626 27.0701 33.2326 27.3974 32.8293 27.3974C32.426 27.3974 32.096 27.0701 32.096 26.6701C32.096 26.2701 32.426 25.9428 32.8293 25.9428ZM16.5499 28.4016C17.0925 29.1144 17.9353 29.5792 18.896 29.5792C19.4606 29.5792 19.974 29.3615 20.3626 29.0124C20.7513 29.3615 21.2646 29.5792 21.8293 29.5792H22.5626C23.1273 29.5792 23.6406 29.3615 24.0293 29.0124C24.418 29.3615 24.9313 29.5792 25.496 29.5792H26.2293C26.794 29.5792 27.3073 29.3615 27.696 29.0124C28.0846 29.3615 28.598 29.5792 29.1626 29.5792C30.1233 29.5792 30.9661 29.1144 31.5087 28.4016C31.8754 28.6853 32.3306 28.8519 32.8293 28.8519C32.9821 28.8519 33.1319 28.8363 33.2762 28.8065C32.7201 30.114 31.4144 31.0337 29.896 31.0337H18.1626C16.6442 31.0337 15.3385 30.114 14.7824 28.8065C14.9267 28.8363 15.0765 28.8519 15.2293 28.8519C15.728 28.8519 16.1832 28.6853 16.5499 28.4016Z" fill="white"/>
<path d="M31.3626 25.055L14.6573 43.6543L31.3626 58.6586L48.068 43.6543L31.3626 25.055ZM27.696 25.055L10.9906 43.6543L27.696 58.6586L44.4013 43.6543L27.696 25.055ZM24.0293 25.055L7.32393 43.6543L24.0293 58.6586L40.7347 43.6543L24.0293 25.055ZM20.3626 25.055L3.65727 43.6543L20.3626 58.6586L37.068 43.6543L20.3626 25.055ZM16.696 25.055L-0.00940037 43.6543L16.696 58.6586L33.4013 43.6543L16.696 25.055ZM16.5499 28.4016L36.4406 13.257L21.1796 -6.7865L1.25345 8.62742L16.5499 28.4016ZM20.3626 29.0124L37.068 10.4132L20.3626 -4.59114L3.65727 10.4132L20.3626 29.0124ZM24.0293 29.0124L40.7347 10.4132L24.0293 -4.59114L7.32393 10.4132L24.0293 29.0124ZM27.696 29.0124L44.4013 10.4132L27.696 -4.59114L10.9906 10.4132L27.696 29.0124ZM31.5087 28.4016L46.8051 8.62742L26.879 -6.7865L11.618 13.257L31.5087 28.4016ZM33.2762 28.8065L56.2818 38.5911L74.9618 -5.32905L28.2204 4.32303L33.2762 28.8065ZM14.7824 28.8065L19.8382 4.32303L-26.9032 -5.32907L-8.22324 38.5911L14.7824 28.8065ZM15.2293 -0.511719C0.408185 -0.511719 -11.9707 11.4678 -11.9707 26.6701H38.0293C38.0293 39.4724 27.6304 49.4883 15.2293 49.4883V-0.511719ZM-11.9707 26.6701V27.3974H38.0293V26.6701H-11.9707ZM-11.9707 27.3974C-11.9707 44.2062 1.72159 57.4883 18.1626 57.4883V7.48828C28.9438 7.48828 38.0293 16.2016 38.0293 27.3974H-11.9707ZM18.1626 57.4883H29.896V7.48828H18.1626V57.4883ZM29.896 57.4883C46.337 57.4883 60.0293 44.2062 60.0293 27.3974H10.0293C10.0293 16.2016 19.1148 7.48828 29.896 7.48828V57.4883ZM60.0293 27.3974V26.6701H10.0293V27.3974H60.0293ZM60.0293 26.6701C60.0293 11.4678 47.6504 -0.511719 32.8293 -0.511719V49.4883C20.4282 49.4883 10.0293 39.4724 10.0293 26.6701H60.0293ZM32.8293 -0.511719C25.6997 -0.511719 19.3296 2.25922 14.6573 6.45583L48.068 43.6543C44.173 47.1527 38.8295 49.4883 32.8293 49.4883V-0.511719ZM48.068 6.45583C43.3956 2.25922 37.0255 -0.511719 29.896 -0.511719V49.4883C23.8957 49.4883 18.5523 47.1527 14.6573 43.6543L48.068 6.45583ZM29.896 -0.511719H29.1626V49.4883H29.896V-0.511719ZM29.1626 -0.511719C22.0331 -0.511719 15.663 2.25922 10.9906 6.45583L44.4013 43.6543C40.5063 47.1527 35.1629 49.4883 29.1626 49.4883V-0.511719ZM44.4013 6.45583C39.729 2.25922 33.3589 -0.511719 26.2293 -0.511719V49.4883C20.2291 49.4883 14.8856 47.1527 10.9906 43.6543L44.4013 6.45583ZM26.2293 -0.511719H25.496V49.4883H26.2293V-0.511719ZM25.496 -0.511719C18.3664 -0.511719 11.9963 2.25922 7.32393 6.45583L40.7347 43.6543C36.8396 47.1527 31.4962 49.4883 25.496 49.4883V-0.511719ZM40.7347 6.45583C36.0623 2.25922 29.6922 -0.511719 22.5626 -0.511719V49.4883C16.5624 49.4883 11.219 47.1527 7.32393 43.6543L40.7347 6.45583ZM22.5626 -0.511719H21.8293V49.4883H22.5626V-0.511719ZM21.8293 -0.511719C14.6997 -0.511719 8.32963 2.25922 3.65727 6.45583L37.068 43.6543C33.173 47.1527 27.8295 49.4883 21.8293 49.4883V-0.511719ZM37.068 6.45583C32.3956 2.25922 26.0255 -0.511719 18.896 -0.511719V49.4883C12.8957 49.4883 7.5523 47.1527 3.65727 43.6543L37.068 6.45583ZM18.896 -0.511719H18.1626V49.4883H18.896V-0.511719ZM18.1626 -0.511719C11.0331 -0.511719 4.66296 2.25922 -0.00940037 6.45583L33.4013 43.6543C29.5063 47.1527 24.1629 49.4883 18.1626 49.4883V-0.511719ZM33.4013 6.45583C28.729 2.25922 22.3589 -0.511719 15.2293 -0.511719V49.4883C9.22907 49.4883 3.88563 47.1527 -0.00940037 43.6543L33.4013 6.45583ZM15.2293 50.9428C2.02152 50.9428 -9.03737 40.2724 -9.03737 26.6701H40.9626C40.9626 12.2678 29.2437 0.942827 15.2293 0.942827V50.9428ZM-9.03737 26.6701C-9.03737 13.0678 2.02152 2.39737 15.2293 2.39737V52.3974C29.2437 52.3974 40.9626 41.0724 40.9626 26.6701H-9.03737ZM15.2293 2.39737C28.4371 2.39737 39.496 13.0678 39.496 26.6701H-10.504C-10.504 41.0724 1.21485 52.3974 15.2293 52.3974V2.39737ZM39.496 26.6701C39.496 40.2724 28.4371 50.9428 15.2293 50.9428V0.942827C1.21485 0.942827 -10.504 12.2678 -10.504 26.6701H39.496ZM18.1626 50.9428H18.896V0.942827H18.1626V50.9428ZM18.896 50.9428C5.68818 50.9428 -5.3707 40.2724 -5.3707 26.6701H44.6293C44.6293 12.2678 32.9104 0.942827 18.896 0.942827V50.9428ZM-5.3707 26.6701V27.3974H44.6293V26.6701H-5.3707ZM-5.3707 27.3974C-5.3707 13.7951 5.68818 3.12465 18.896 3.12465V53.1246C32.9104 53.1246 44.6293 41.7997 44.6293 27.3974H-5.3707ZM18.896 3.12465C31.7004 3.12465 42.4293 13.4678 42.4293 26.6701H-7.5707C-7.5707 41.4724 4.47818 53.1246 18.896 53.1246V3.12465ZM42.4293 26.6701C42.4293 40.2724 31.3704 50.9428 18.1626 50.9428V0.942827C4.14818 0.942827 -7.5707 12.2678 -7.5707 26.6701H42.4293ZM21.8293 50.9428H22.5626V0.942827H21.8293V50.9428ZM22.5626 50.9428C9.35485 50.9428 -1.70404 40.2724 -1.70404 26.6701H48.296C48.296 12.2678 36.5771 0.942827 22.5626 0.942827V50.9428ZM-1.70404 26.6701V27.3974H48.296V26.6701H-1.70404ZM-1.70404 27.3974C-1.70404 13.7951 9.35485 3.12465 22.5626 3.12465V53.1246C36.5771 53.1246 48.296 41.7997 48.296 27.3974H-1.70404ZM22.5626 3.12465H21.8293V53.1246H22.5626V3.12465ZM21.8293 3.12465C35.0371 3.12465 46.096 13.7951 46.096 27.3974H-3.90404C-3.90404 41.7997 7.81485 53.1246 21.8293 53.1246V3.12465ZM46.096 27.3974V26.6701H-3.90404V27.3974H46.096ZM46.096 26.6701C46.096 40.2724 35.0371 50.9428 21.8293 50.9428V0.942827C7.81485 0.942827 -3.90404 12.2678 -3.90404 26.6701H46.096ZM25.496 50.9428H26.2293V0.942827H25.496V50.9428ZM26.2293 50.9428C13.0215 50.9428 1.96263 40.2724 1.96263 26.6701H51.9626C51.9626 12.2678 40.2437 0.942827 26.2293 0.942827V50.9428ZM1.96263 26.6701V27.3974H51.9626V26.6701H1.96263ZM1.96263 27.3974C1.96263 13.7951 13.0215 3.12465 26.2293 3.12465V53.1246C40.2437 53.1246 51.9626 41.7997 51.9626 27.3974H1.96263ZM26.2293 3.12465H25.496V53.1246H26.2293V3.12465ZM25.496 3.12465C38.7037 3.12465 49.7626 13.7951 49.7626 27.3974H-0.23737C-0.23737 41.7997 11.4815 53.1246 25.496 53.1246V3.12465ZM49.7626 27.3974V26.6701H-0.23737V27.3974H49.7626ZM49.7626 26.6701C49.7626 40.2724 38.7037 50.9428 25.496 50.9428V0.942827C11.4815 0.942827 -0.23737 12.2678 -0.23737 26.6701H49.7626ZM29.1626 50.9428H29.896V0.942827H29.1626V50.9428ZM29.896 50.9428C16.6882 50.9428 5.6293 40.2724 5.6293 26.6701H55.6293C55.6293 12.2678 43.9104 0.942827 29.896 0.942827V50.9428ZM5.6293 26.6701C5.6293 13.4678 16.3582 3.12465 29.1626 3.12465V53.1246C43.5804 53.1246 55.6293 41.4724 55.6293 26.6701H5.6293ZM29.1626 3.12465C42.3704 3.12465 53.4293 13.7951 53.4293 27.3974H3.4293C3.4293 41.7997 15.1482 53.1246 29.1626 53.1246V3.12465ZM53.4293 27.3974V26.6701H3.4293V27.3974H53.4293ZM53.4293 26.6701C53.4293 40.2724 42.3704 50.9428 29.1626 50.9428V0.942827C15.1482 0.942827 3.4293 12.2678 3.4293 26.6701H53.4293ZM32.8293 50.9428C19.6215 50.9428 8.56263 40.2724 8.56263 26.6701H58.5626C58.5626 12.2678 46.8437 0.942827 32.8293 0.942827V50.9428ZM8.56263 26.6701C8.56263 13.0678 19.6215 2.39737 32.8293 2.39737V52.3974C46.8437 52.3974 58.5626 41.0724 58.5626 26.6701H8.56263ZM32.8293 2.39737C46.0371 2.39737 57.096 13.0678 57.096 26.6701H7.09596C7.09596 41.0724 18.8149 52.3974 32.8293 52.3974V2.39737ZM57.096 26.6701C57.096 40.2724 46.0371 50.9428 32.8293 50.9428V0.942827C18.8149 0.942827 7.09596 12.2678 7.09596 26.6701H57.096ZM-3.34081 43.5463C1.57337 50.0005 9.55949 54.5792 18.896 54.5792V4.57919C26.3111 4.57919 32.6117 8.22825 36.4406 13.257L-3.34081 43.5463ZM18.896 54.5792C26.0255 54.5792 32.3956 51.8082 37.068 47.6116L3.65727 10.4132C7.5523 6.91479 12.8957 4.57919 18.896 4.57919V54.5792ZM3.65727 47.6116C8.32963 51.8082 14.6997 54.5792 21.8293 54.5792V4.57919C27.8295 4.57919 33.173 6.91479 37.068 10.4132L3.65727 47.6116ZM21.8293 54.5792H22.5626V4.57919H21.8293V54.5792ZM22.5626 54.5792C29.6922 54.5792 36.0623 51.8082 40.7347 47.6116L7.32393 10.4132C11.219 6.91479 16.5624 4.57919 22.5626 4.57919V54.5792ZM7.32393 47.6116C11.9963 51.8082 18.3664 54.5792 25.496 54.5792V4.57919C31.4962 4.57919 36.8396 6.91479 40.7347 10.4132L7.32393 47.6116ZM25.496 54.5792H26.2293V4.57919H25.496V54.5792ZM26.2293 54.5792C33.3589 54.5792 39.729 51.8082 44.4013 47.6116L10.9906 10.4132C14.8856 6.91479 20.2291 4.57919 26.2293 4.57919V54.5792ZM10.9906 47.6116C15.663 51.8082 22.0331 54.5792 29.1626 54.5792V4.57919C35.1629 4.57919 40.5063 6.91479 44.4013 10.4132L10.9906 47.6116ZM29.1626 54.5792C38.4991 54.5792 46.4852 50.0005 51.3994 43.5463L11.618 13.257C15.4469 8.22824 21.7475 4.57919 29.1626 4.57919V54.5792ZM16.2123 48.1758C20.8135 51.7351 26.6134 53.8519 32.8293 53.8519V3.85192C38.0479 3.85192 42.9372 5.6354 46.8051 8.62742L16.2123 48.1758ZM32.8293 53.8519C34.6893 53.8519 36.533 53.6614 38.332 53.2899L28.2204 4.32303C29.7308 4.01111 31.2749 3.85192 32.8293 3.85192V53.8519ZM10.2705 19.0218C13.527 11.3651 21.1073 6.03374 29.896 6.03374V56.0337C41.7214 56.0337 51.9131 48.8629 56.2818 38.5911L10.2705 19.0218ZM29.896 6.03374H18.1626V56.0337H29.896V6.03374ZM18.1626 6.03374C26.9513 6.03374 34.5316 11.3651 37.7881 19.0218L-8.22324 38.5911C-3.85449 48.8629 6.33717 56.0337 18.1626 56.0337V6.03374ZM9.7266 53.2899C11.5256 53.6614 13.3693 53.8519 15.2293 53.8519V3.85192C16.7837 3.85192 18.3278 4.01111 19.8382 4.32303L9.7266 53.2899ZM15.2293 53.8519C21.4452 53.8519 27.2451 51.7351 31.8463 48.1758L1.25345 8.62742C5.12135 5.63539 10.0107 3.85192 15.2293 3.85192V53.8519Z" fill="#2B70C9" mask="url(#path-2-inside-1_1157_14460)"/>
</g>
<defs>
<clipPath id="clip0_1157_14460">
<rect x="4.0293" y="4.48828" width="40" height="40" rx="20" fill="white"/>
</clipPath>
</defs>
</svg>
