<svg width="49" height="49" viewBox="0 0 49 49" fill="none" xmlns="http://www.w3.org/2000/svg">
<g clip-path="url(#clip0_1157_14461)">
<rect x="4.0293" y="4.48828" width="40" height="40" rx="20" fill="#2B70C9"/>
<path d="M21.5776 16.9196C21.0142 16.6981 20.4805 16.4883 19.6543 16.4883C17.9043 16.4883 17.0293 18.3706 17.0293 20.7236C17.0293 22.228 17.387 23.1554 17.7594 24.1206C17.9694 24.6649 18.184 25.2213 18.3418 25.9C18.4722 26.461 18.5248 27.2727 18.5809 28.1358C18.7128 30.1692 18.8633 32.4883 20.0918 32.4883C20.8784 32.4883 21.223 31.1572 21.6025 29.6917C22.0672 27.8967 22.5842 25.9 24.0293 25.9C25.4744 25.9 25.9913 27.8967 26.4561 29.6917C26.8355 31.1572 27.1802 32.4883 27.9668 32.4883C29.1953 32.4883 29.3458 30.1692 29.4777 28.1358C29.5337 27.2727 29.5864 26.461 29.7168 25.9C29.8746 25.2213 30.0892 24.6649 30.2992 24.1206C30.6716 23.1554 31.0293 22.228 31.0293 20.7236C31.0293 18.3706 30.1543 16.4883 28.4043 16.4883C27.578 16.4883 27.0444 16.6981 26.481 16.9196C25.851 17.1672 25.184 17.4295 24.0293 17.4295C22.8746 17.4295 22.2075 17.1672 21.5776 16.9196Z" stroke="white" stroke-width="1.5" stroke-linecap="round" stroke-linejoin="round"/>
</g>
<defs>
<clipPath id="clip0_1157_14461">
<rect x="4.0293" y="4.48828" width="40" height="40" rx="20" fill="white"/>
</clipPath>
</defs>
</svg>
