<svg width="49" height="49" viewBox="0 0 49 49" fill="none" xmlns="http://www.w3.org/2000/svg">
<g clip-path="url(#clip0_1157_14459)">
<rect x="4.0293" y="4.48828" width="40" height="40" rx="20" fill="#BCD3ED"/>
<mask id="path-2-inside-1_1157_14459" fill="white">
<path d="M19.6293 16.4883C15.9898 16.4883 13.0293 18.9726 13.0293 22.0267V22.6421C13.0293 23.6575 14.0193 24.4883 15.2293 24.4883C15.794 24.4883 16.3073 24.3041 16.696 24.0087C17.0846 24.3041 17.598 24.4883 18.1626 24.4883H18.896C19.4606 24.4883 19.974 24.3041 20.3626 24.0087C20.7513 24.3041 21.2646 24.4883 21.8293 24.4883H22.5626C23.1273 24.4883 23.6406 24.3041 24.0293 24.0087C24.418 24.3041 24.9313 24.4883 25.496 24.4883H26.2293C26.794 24.4883 27.3073 24.3041 27.696 24.0087C28.0846 24.3041 28.598 24.4883 29.1626 24.4883H29.896C30.4606 24.4883 30.974 24.3041 31.3626 24.0087C31.7513 24.3041 32.2646 24.4883 32.8293 24.4883C34.0393 24.4883 35.0293 23.6575 35.0293 22.6421V22.0267C35.0293 18.9726 32.0688 16.4883 28.4293 16.4883H19.6293ZM19.6293 17.7191H28.4293C30.4812 17.7191 32.2518 18.737 33.0728 20.201C32.9919 20.1934 32.9125 20.1806 32.8293 20.1806C32.382 20.1806 31.9708 20.2915 31.6262 20.4823C31.1642 19.9284 30.3946 19.5652 29.5293 19.5652C28.972 19.5652 28.4591 19.7191 28.0411 19.9715C27.5865 19.3622 26.7793 18.9498 25.8626 18.9498C25.144 18.9498 24.4986 19.2025 24.0293 19.6025C23.56 19.2025 22.9146 18.9498 22.196 18.9498C21.2793 18.9498 20.4721 19.3622 20.0174 19.9715C19.5994 19.7191 19.0866 19.5652 18.5293 19.5652C17.664 19.5652 16.8944 19.9284 16.4324 20.4823C16.0878 20.2915 15.6766 20.1806 15.2293 20.1806C15.1461 20.1806 15.0667 20.1934 14.9858 20.201C15.8068 18.737 17.5774 17.7191 19.6293 17.7191ZM22.196 20.1806C22.8046 20.1806 23.296 20.5929 23.296 21.1037V22.6421C23.296 22.9806 22.966 23.2575 22.5626 23.2575H21.8293C21.426 23.2575 21.096 22.9806 21.096 22.6421V21.1037C21.096 20.5929 21.5873 20.1806 22.196 20.1806ZM25.8626 20.1806C26.4713 20.1806 26.9626 20.5929 26.9626 21.1037V22.6421C26.9626 22.9806 26.6326 23.2575 26.2293 23.2575H25.496C25.0926 23.2575 24.7626 22.9806 24.7626 22.6421V21.1037C24.7626 20.5929 25.254 20.1806 25.8626 20.1806ZM18.5293 20.796C19.138 20.796 19.6293 21.2083 19.6293 21.7191V22.6421C19.6293 22.9806 19.2993 23.2575 18.896 23.2575H18.1626C17.7593 23.2575 17.4293 22.9806 17.4293 22.6421V21.7191C17.4293 21.2083 17.9206 20.796 18.5293 20.796ZM29.5293 20.796C30.138 20.796 30.6293 21.2083 30.6293 21.7191V22.6421C30.6293 22.9806 30.2993 23.2575 29.896 23.2575H29.1626C28.7593 23.2575 28.4293 22.9806 28.4293 22.6421V21.7191C28.4293 21.2083 28.9206 20.796 29.5293 20.796ZM15.2293 21.4114C15.6326 21.4114 15.9626 21.6883 15.9626 22.0267V22.6421C15.9626 22.9806 15.6326 23.2575 15.2293 23.2575C14.826 23.2575 14.496 22.9806 14.496 22.6421V22.0267C14.496 21.6883 14.826 21.4114 15.2293 21.4114ZM32.8293 21.4114C33.2326 21.4114 33.5626 21.6883 33.5626 22.0267V22.6421C33.5626 22.9806 33.2326 23.2575 32.8293 23.2575C32.426 23.2575 32.096 22.9806 32.096 22.6421V22.0267C32.096 21.6883 32.426 21.4114 32.8293 21.4114Z"/>
</mask>
<path d="M19.6293 16.4883C15.9898 16.4883 13.0293 18.9726 13.0293 22.0267V22.6421C13.0293 23.6575 14.0193 24.4883 15.2293 24.4883C15.794 24.4883 16.3073 24.3041 16.696 24.0087C17.0846 24.3041 17.598 24.4883 18.1626 24.4883H18.896C19.4606 24.4883 19.974 24.3041 20.3626 24.0087C20.7513 24.3041 21.2646 24.4883 21.8293 24.4883H22.5626C23.1273 24.4883 23.6406 24.3041 24.0293 24.0087C24.418 24.3041 24.9313 24.4883 25.496 24.4883H26.2293C26.794 24.4883 27.3073 24.3041 27.696 24.0087C28.0846 24.3041 28.598 24.4883 29.1626 24.4883H29.896C30.4606 24.4883 30.974 24.3041 31.3626 24.0087C31.7513 24.3041 32.2646 24.4883 32.8293 24.4883C34.0393 24.4883 35.0293 23.6575 35.0293 22.6421V22.0267C35.0293 18.9726 32.0688 16.4883 28.4293 16.4883H19.6293ZM19.6293 17.7191H28.4293C30.4812 17.7191 32.2518 18.737 33.0728 20.201C32.9919 20.1934 32.9125 20.1806 32.8293 20.1806C32.382 20.1806 31.9708 20.2915 31.6262 20.4823C31.1642 19.9284 30.3946 19.5652 29.5293 19.5652C28.972 19.5652 28.4591 19.7191 28.0411 19.9715C27.5865 19.3622 26.7793 18.9498 25.8626 18.9498C25.144 18.9498 24.4986 19.2025 24.0293 19.6025C23.56 19.2025 22.9146 18.9498 22.196 18.9498C21.2793 18.9498 20.4721 19.3622 20.0174 19.9715C19.5994 19.7191 19.0866 19.5652 18.5293 19.5652C17.664 19.5652 16.8944 19.9284 16.4324 20.4823C16.0878 20.2915 15.6766 20.1806 15.2293 20.1806C15.1461 20.1806 15.0667 20.1934 14.9858 20.201C15.8068 18.737 17.5774 17.7191 19.6293 17.7191ZM22.196 20.1806C22.8046 20.1806 23.296 20.5929 23.296 21.1037V22.6421C23.296 22.9806 22.966 23.2575 22.5626 23.2575H21.8293C21.426 23.2575 21.096 22.9806 21.096 22.6421V21.1037C21.096 20.5929 21.5873 20.1806 22.196 20.1806ZM25.8626 20.1806C26.4713 20.1806 26.9626 20.5929 26.9626 21.1037V22.6421C26.9626 22.9806 26.6326 23.2575 26.2293 23.2575H25.496C25.0926 23.2575 24.7626 22.9806 24.7626 22.6421V21.1037C24.7626 20.5929 25.254 20.1806 25.8626 20.1806ZM18.5293 20.796C19.138 20.796 19.6293 21.2083 19.6293 21.7191V22.6421C19.6293 22.9806 19.2993 23.2575 18.896 23.2575H18.1626C17.7593 23.2575 17.4293 22.9806 17.4293 22.6421V21.7191C17.4293 21.2083 17.9206 20.796 18.5293 20.796ZM29.5293 20.796C30.138 20.796 30.6293 21.2083 30.6293 21.7191V22.6421C30.6293 22.9806 30.2993 23.2575 29.896 23.2575H29.1626C28.7593 23.2575 28.4293 22.9806 28.4293 22.6421V21.7191C28.4293 21.2083 28.9206 20.796 29.5293 20.796ZM15.2293 21.4114C15.6326 21.4114 15.9626 21.6883 15.9626 22.0267V22.6421C15.9626 22.9806 15.6326 23.2575 15.2293 23.2575C14.826 23.2575 14.496 22.9806 14.496 22.6421V22.0267C14.496 21.6883 14.826 21.4114 15.2293 21.4114ZM32.8293 21.4114C33.2326 21.4114 33.5626 21.6883 33.5626 22.0267V22.6421C33.5626 22.9806 33.2326 23.2575 32.8293 23.2575C32.426 23.2575 32.096 22.9806 32.096 22.6421V22.0267C32.096 21.6883 32.426 21.4114 32.8293 21.4114Z" fill="#546E7A"/>
<path d="M16.696 24.0087L31.823 4.10461L16.696 -7.39184L1.56895 4.10461L16.696 24.0087ZM20.3626 24.0087L35.4896 4.10461L20.3626 -7.39184L5.23561 4.10461L20.3626 24.0087ZM24.0293 24.0087L39.1563 4.10461L24.0293 -7.39184L8.90228 4.10461L24.0293 24.0087ZM27.696 24.0087L42.823 4.10461L27.696 -7.39184L12.5689 4.10461L27.696 24.0087ZM31.3626 24.0087L46.4896 4.10461L31.3626 -7.39184L16.2356 4.10461L31.3626 24.0087ZM33.0728 20.201L30.7194 45.09L78.2107 49.5805L54.8782 7.97305L33.0728 20.201ZM31.6262 20.4823L12.4285 36.4963L25.6601 52.3584L43.7327 42.3554L31.6262 20.4823ZM28.0411 19.9715L8.00558 34.9239L21.5593 53.0852L40.9603 41.3746L28.0411 19.9715ZM24.0293 19.6025L7.81299 38.6296L24.0293 52.4503L40.2456 38.6296L24.0293 19.6025ZM20.0174 19.9715L7.09834 41.3746L26.4993 53.0852L40.053 34.9239L20.0174 19.9715ZM16.4324 20.4823L4.3259 42.3554L22.3985 52.3584L35.6301 36.4963L16.4324 20.4823ZM14.9858 20.201L-6.81962 7.97305L-30.1521 49.5805L17.3392 45.09L14.9858 20.201ZM19.6293 -8.51172C6.46875 -8.51172 -11.9707 1.23783 -11.9707 22.0267H38.0293C38.0293 28.9984 34.5918 34.2779 31.0349 37.2627C27.5255 40.2077 23.4184 41.4883 19.6293 41.4883V-8.51172ZM-11.9707 22.0267V22.6421H38.0293V22.0267H-11.9707ZM-11.9707 22.6421C-11.9707 41.3923 4.49829 49.4883 15.2293 49.4883V-0.511719C23.5403 -0.511719 38.0293 5.92276 38.0293 22.6421H-11.9707ZM15.2293 49.4883C21.2055 49.4883 27.043 47.5456 31.823 43.9128L1.56895 4.10461C5.57164 1.06259 10.3824 -0.511719 15.2293 -0.511719V49.4883ZM1.56895 43.9128C6.34897 47.5456 12.1864 49.4883 18.1626 49.4883V-0.511719C23.0095 -0.511719 27.8203 1.06259 31.823 4.10461L1.56895 43.9128ZM18.1626 49.4883H18.896V-0.511719H18.1626V49.4883ZM18.896 49.4883C24.8722 49.4883 30.7096 47.5456 35.4896 43.9128L5.23561 4.10461C9.2383 1.06259 14.0491 -0.511719 18.896 -0.511719V49.4883ZM5.23561 43.9128C10.0156 47.5456 15.8531 49.4883 21.8293 49.4883V-0.511719C26.6762 -0.511719 31.487 1.06259 35.4896 4.10461L5.23561 43.9128ZM21.8293 49.4883H22.5626V-0.511719H21.8293V49.4883ZM22.5626 49.4883C28.5389 49.4883 34.3763 47.5456 39.1563 43.9128L8.90228 4.10461C12.905 1.06259 17.7157 -0.511719 22.5626 -0.511719V49.4883ZM8.90228 43.9128C13.6823 47.5456 19.5197 49.4883 25.496 49.4883V-0.511719C30.3429 -0.511719 35.1536 1.06259 39.1563 4.10461L8.90228 43.9128ZM25.496 49.4883H26.2293V-0.511719H25.496V49.4883ZM26.2293 49.4883C32.2055 49.4883 38.043 47.5456 42.823 43.9128L12.5689 4.10461C16.5716 1.06259 21.3824 -0.511719 26.2293 -0.511719V49.4883ZM12.5689 43.9128C17.349 47.5456 23.1864 49.4883 29.1626 49.4883V-0.511719C34.0095 -0.511719 38.8203 1.06259 42.823 4.10461L12.5689 43.9128ZM29.1626 49.4883H29.896V-0.511719H29.1626V49.4883ZM29.896 49.4883C35.8722 49.4883 41.7096 47.5456 46.4896 43.9128L16.2356 4.10461C20.2383 1.06259 25.0491 -0.511719 29.896 -0.511719V49.4883ZM16.2356 43.9128C21.0156 47.5456 26.8531 49.4883 32.8293 49.4883V-0.511719C37.6762 -0.511719 42.487 1.06259 46.4896 4.10461L16.2356 43.9128ZM32.8293 49.4883C43.5603 49.4883 60.0293 41.3923 60.0293 22.6421H10.0293C10.0293 5.92276 24.5183 -0.511719 32.8293 -0.511719V49.4883ZM60.0293 22.6421V22.0267H10.0293V22.6421H60.0293ZM60.0293 22.0267C60.0293 1.23783 41.5898 -8.51172 28.4293 -8.51172V41.4883C24.6402 41.4883 20.5331 40.2077 17.0237 37.2627C13.4668 34.2779 10.0293 28.9984 10.0293 22.0267H60.0293ZM28.4293 -8.51172H19.6293V41.4883H28.4293V-8.51172ZM19.6293 42.7191H28.4293V-7.28095H19.6293V42.7191ZM28.4293 42.7191C22.6402 42.7191 15.4283 39.8489 11.2674 32.429L54.8782 7.97305C49.0754 -2.37483 38.3221 -7.28095 28.4293 -7.28095V42.7191ZM35.4261 -4.68797C35.5482 -4.67642 35.6472 -4.66608 35.711 -4.65923C35.7722 -4.65266 35.8179 -4.64747 35.8204 -4.64719C35.8757 -4.64094 35.6898 -4.66235 35.5103 -4.68081C35.1162 -4.72136 34.1102 -4.81941 32.8293 -4.81941V45.1806C31.6316 45.1806 30.7069 45.0889 30.3935 45.0567C30.2544 45.0424 30.1087 45.0256 30.2043 45.0364C30.2364 45.04 30.453 45.0648 30.7194 45.09L35.4261 -4.68797ZM32.8293 -4.81941C28.2339 -4.81941 23.6454 -3.67436 19.5197 -1.39082L43.7327 42.3554C40.2963 44.2574 36.53 45.1806 32.8293 45.1806V-4.81941ZM50.8238 4.46822C45.2022 -2.27104 37.1454 -5.4348 29.5293 -5.4348V44.5652C23.6438 44.5652 17.1262 42.1279 12.4285 36.4963L50.8238 4.46822ZM29.5293 -5.4348C24.3687 -5.4348 19.3958 -4.01138 15.122 -1.43173L40.9603 41.3746C37.5225 43.4497 33.5752 44.5652 29.5293 44.5652V-5.4348ZM48.0767 5.01899C42.529 -2.41473 34.0218 -6.05018 25.8626 -6.05018V43.9498C19.5368 43.9498 12.644 41.1392 8.00558 34.9239L48.0767 5.01899ZM25.8626 -6.05018C19.2976 -6.05018 12.8793 -3.74257 7.81299 0.575337L40.2456 38.6296C36.1179 42.1475 30.9903 43.9498 25.8626 43.9498V-6.05018ZM40.2456 0.575337C35.1793 -3.74257 28.761 -6.05018 22.196 -6.05018V43.9498C17.0683 43.9498 11.9407 42.1475 7.81299 38.6296L40.2456 0.575337ZM22.196 -6.05018C14.0368 -6.05018 5.52964 -2.41473 -0.0181141 5.01899L40.053 34.9239C35.4146 41.1392 28.5218 43.9498 22.196 43.9498V-6.05018ZM32.9366 -1.43174C28.6628 -4.01138 23.6898 -5.4348 18.5293 -5.4348V44.5652C14.4834 44.5652 10.5361 43.4497 7.09834 41.3746L32.9366 -1.43174ZM18.5293 -5.4348C10.9132 -5.4348 2.85643 -2.27104 -2.76524 4.46822L35.6301 36.4963C30.9324 42.1279 24.4148 44.5652 18.5293 44.5652V-5.4348ZM28.5389 -1.39082C24.4132 -3.67436 19.8247 -4.81941 15.2293 -4.81941V45.1806C11.5286 45.1806 7.76228 44.2574 4.3259 42.3554L28.5389 -1.39082ZM15.2293 -4.81941C13.9484 -4.81941 12.9424 -4.72136 12.5483 -4.68081C12.3688 -4.66235 12.1829 -4.64094 12.2382 -4.64719C12.2407 -4.64747 12.2864 -4.65266 12.3476 -4.65923C12.4114 -4.66608 12.5104 -4.67642 12.6325 -4.68797L17.3392 45.09C17.6056 45.0648 17.8222 45.04 17.8543 45.0364C17.9499 45.0256 17.8042 45.0424 17.6651 45.0567C17.3517 45.0889 16.427 45.1806 15.2293 45.1806V-4.81941ZM36.7912 32.429C32.6303 39.8489 25.4183 42.7191 19.6293 42.7191V-7.28095C9.73648 -7.28095 -1.01677 -2.37483 -6.81962 7.97305L36.7912 32.429ZM22.196 45.1806C13.2836 45.1806 -1.70404 38.3277 -1.70404 21.1037H48.296C48.296 2.85814 32.3256 -4.81941 22.196 -4.81941V45.1806ZM-1.70404 21.1037V22.6421H48.296V21.1037H-1.70404ZM-1.70404 22.6421C-1.70404 5.24583 13.445 -1.74249 22.5626 -1.74249V48.2575C32.487 48.2575 48.296 40.7153 48.296 22.6421H-1.70404ZM22.5626 -1.74249H21.8293V48.2575H22.5626V-1.74249ZM21.8293 -1.74249C30.947 -1.74249 46.096 5.24583 46.096 22.6421H-3.90404C-3.90404 40.7153 11.905 48.2575 21.8293 48.2575V-1.74249ZM46.096 22.6421V21.1037H-3.90404V22.6421H46.096ZM46.096 21.1037C46.096 38.3277 31.1083 45.1806 22.196 45.1806V-4.81941C12.0663 -4.81941 -3.90404 2.85814 -3.90404 21.1037H46.096ZM25.8626 45.1806C16.9503 45.1806 1.96263 38.3277 1.96263 21.1037H51.9626C51.9626 2.85814 35.9923 -4.81941 25.8626 -4.81941V45.1806ZM1.96263 21.1037V22.6421H51.9626V21.1037H1.96263ZM1.96263 22.6421C1.96263 5.24583 17.1116 -1.74249 26.2293 -1.74249V48.2575C36.1536 48.2575 51.9626 40.7153 51.9626 22.6421H1.96263ZM26.2293 -1.74249H25.496V48.2575H26.2293V-1.74249ZM25.496 -1.74249C34.6136 -1.74249 49.7626 5.24583 49.7626 22.6421H-0.23737C-0.23737 40.7153 15.5716 48.2575 25.496 48.2575V-1.74249ZM49.7626 22.6421V21.1037H-0.23737V22.6421H49.7626ZM49.7626 21.1037C49.7626 38.3277 34.775 45.1806 25.8626 45.1806V-4.81941C15.733 -4.81941 -0.23737 2.85814 -0.23737 21.1037H49.7626ZM18.5293 45.796C9.61695 45.796 -5.3707 38.943 -5.3707 21.7191H44.6293C44.6293 3.47353 28.659 -4.20403 18.5293 -4.20403V45.796ZM-5.3707 21.7191V22.6421H44.6293V21.7191H-5.3707ZM-5.3707 22.6421C-5.3707 5.24583 9.77829 -1.74249 18.896 -1.74249V48.2575C28.8203 48.2575 44.6293 40.7153 44.6293 22.6421H-5.3707ZM18.896 -1.74249H18.1626V48.2575H18.896V-1.74249ZM18.1626 -1.74249C27.2803 -1.74249 42.4293 5.24583 42.4293 22.6421H-7.5707C-7.5707 40.7153 8.23829 48.2575 18.1626 48.2575V-1.74249ZM42.4293 22.6421V21.7191H-7.5707V22.6421H42.4293ZM42.4293 21.7191C42.4293 38.943 27.4416 45.796 18.5293 45.796V-4.20403C8.39962 -4.20403 -7.5707 3.47353 -7.5707 21.7191H42.4293ZM29.5293 45.796C20.617 45.796 5.6293 38.943 5.6293 21.7191H55.6293C55.6293 3.47353 39.659 -4.20403 29.5293 -4.20403V45.796ZM5.6293 21.7191V22.6421H55.6293V21.7191H5.6293ZM5.6293 22.6421C5.6293 5.24583 20.7783 -1.74249 29.896 -1.74249V48.2575C39.8203 48.2575 55.6293 40.7153 55.6293 22.6421H5.6293ZM29.896 -1.74249H29.1626V48.2575H29.896V-1.74249ZM29.1626 -1.74249C38.2803 -1.74249 53.4293 5.24583 53.4293 22.6421H3.4293C3.4293 40.7153 19.2383 48.2575 29.1626 48.2575V-1.74249ZM53.4293 22.6421V21.7191H3.4293V22.6421H53.4293ZM53.4293 21.7191C53.4293 38.943 38.4416 45.796 29.5293 45.796V-4.20403C19.3996 -4.20403 3.4293 3.47353 3.4293 21.7191H53.4293ZM15.2293 46.4114C6.11162 46.4114 -9.03737 39.423 -9.03737 22.0267H40.9626C40.9626 3.95352 25.1536 -3.58864 15.2293 -3.58864V46.4114ZM-9.03737 22.0267V22.6421H40.9626V22.0267H-9.03737ZM-9.03737 22.6421C-9.03737 5.24583 6.11162 -1.74249 15.2293 -1.74249V48.2575C25.1536 48.2575 40.9626 40.7153 40.9626 22.6421H-9.03737ZM15.2293 -1.74249C24.347 -1.74249 39.496 5.24583 39.496 22.6421H-10.504C-10.504 40.7153 5.30495 48.2575 15.2293 48.2575V-1.74249ZM39.496 22.6421V22.0267H-10.504V22.6421H39.496ZM39.496 22.0267C39.496 39.423 24.347 46.4114 15.2293 46.4114V-3.58864C5.30495 -3.58864 -10.504 3.95352 -10.504 22.0267H39.496ZM32.8293 46.4114C23.7116 46.4114 8.56263 39.423 8.56263 22.0267H58.5626C58.5626 3.95352 42.7536 -3.58864 32.8293 -3.58864V46.4114ZM8.56263 22.0267V22.6421H58.5626V22.0267H8.56263ZM8.56263 22.6421C8.56263 5.24583 23.7116 -1.74249 32.8293 -1.74249V48.2575C42.7536 48.2575 58.5626 40.7153 58.5626 22.6421H8.56263ZM32.8293 -1.74249C41.947 -1.74249 57.096 5.24583 57.096 22.6421H7.09596C7.09596 40.7153 22.905 48.2575 32.8293 48.2575V-1.74249ZM57.096 22.6421V22.0267H7.09596V22.6421H57.096ZM57.096 22.0267C57.096 39.423 41.947 46.4114 32.8293 46.4114V-3.58864C22.905 -3.58864 7.09596 3.95352 7.09596 22.0267H57.096Z" fill="#2B70C9" mask="url(#path-2-inside-1_1157_14459)"/>
</g>
<defs>
<clipPath id="clip0_1157_14459">
<rect x="4.0293" y="4.48828" width="40" height="40" rx="20" fill="white"/>
</clipPath>
</defs>
</svg>
