<svg width="48" height="48" viewBox="0 0 48 48" fill="none" xmlns="http://www.w3.org/2000/svg">
<g clip-path="url(#clip0_215_8392)">
<path d="M26 25.75C26.4142 25.75 26.75 25.4142 26.75 25C26.75 24.5858 26.4142 24.25 26 24.25V25.75ZM26 33.75C26.4142 33.75 26.75 33.4142 26.75 33C26.75 32.5858 26.4142 32.25 26 32.25V33.75ZM27 28.25C26.5858 28.25 26.25 28.5858 26.25 29C26.25 29.4142 26.5858 29.75 27 29.75V28.25ZM33 29.75C33.4142 29.75 33.75 29.4142 33.75 29C33.75 28.5858 33.4142 28.25 33 28.25V29.75ZM29.25 32C29.25 32.4142 29.5858 32.75 30 32.75C30.4142 32.75 30.75 32.4142 30.75 32H29.25ZM30.75 26C30.75 25.5858 30.4142 25.25 30 25.25C29.5858 25.25 29.25 25.5858 29.25 26H30.75ZM26.25 18C26.25 19.7949 24.7949 21.25 23 21.25V22.75C25.6234 22.75 27.75 20.6234 27.75 18H26.25ZM23 21.25C21.2051 21.25 19.75 19.7949 19.75 18H18.25C18.25 20.6234 20.3766 22.75 23 22.75V21.25ZM19.75 18C19.75 16.2051 21.2051 14.75 23 14.75V13.25C20.3766 13.25 18.25 15.3766 18.25 18H19.75ZM23 14.75C24.7949 14.75 26.25 16.2051 26.25 18H27.75C27.75 15.3766 25.6234 13.25 23 13.25V14.75ZM20 25.75H26V24.25H20V25.75ZM26 32.25H20V33.75H26V32.25ZM20 32.25C18.2051 32.25 16.75 30.7949 16.75 29H15.25C15.25 31.6234 17.3766 33.75 20 33.75V32.25ZM20 24.25C17.3766 24.25 15.25 26.3766 15.25 29H16.75C16.75 27.2051 18.2051 25.75 20 25.75V24.25ZM27 29.75H33V28.25H27V29.75ZM30.75 32V26H29.25V32H30.75Z" fill="#37474F"/>
</g>
<defs>
<clipPath id="clip0_215_8392">
<rect x="4" y="4" width="40" height="40" rx="20" fill="white"/>
</clipPath>
</defs>
</svg>
