<svg width="49" height="49" viewBox="0 0 49 49" fill="none" xmlns="http://www.w3.org/2000/svg">
<g clip-path="url(#clip0_4727_4752)">
<path d="M28.5573 18.9556C28.2631 18.664 27.7882 18.6661 27.4966 18.9603C27.205 19.2545 27.2071 19.7294 27.5013 20.021L29.2643 21.7683C29.9798 22.4774 30.4706 22.9655 30.8027 23.379C30.9106 23.5134 30.9948 23.6317 31.0602 23.7383L16.0293 23.7383C15.6151 23.7383 15.2793 24.0741 15.2793 24.4883C15.2793 24.9025 15.6151 25.2383 16.0293 25.2383L31.0602 25.2383C30.9948 25.3449 30.9106 25.4632 30.8027 25.5976C30.4706 26.0111 29.9798 26.4991 29.2643 27.2083L27.5013 28.9556C27.2071 29.2472 27.205 29.722 27.4966 30.0162C27.7882 30.3104 28.2631 30.3126 28.5573 30.021L30.352 28.2422C31.028 27.5722 31.5804 27.0247 31.9722 26.5368C32.3797 26.0295 32.6746 25.5146 32.7534 24.8964C32.7707 24.7609 32.7793 24.6246 32.7793 24.4883C32.7793 24.352 32.7707 24.2156 32.7534 24.0801C32.6746 23.462 32.3797 22.9471 31.9722 22.4397C31.5804 21.9519 31.028 21.4043 30.352 20.7344L28.5573 18.9556Z" fill="#37474F"/>
</g>
<defs>
<clipPath id="clip0_4727_4752">
<rect x="4.0293" y="4.48828" width="40" height="40" rx="20" fill="white"/>
</clipPath>
</defs>
</svg>
