<svg width="49" height="49" viewBox="0 0 49 49" fill="none" xmlns="http://www.w3.org/2000/svg">
<g clip-path="url(#clip0_4727_1155)">
<g clip-path="url(#clip1_4727_1155)">
<path d="M31.9718 31.6344V32.1344H32.4718H35.1046C35.2173 32.1344 35.3181 32.176 35.3863 32.239C35.4532 32.3006 35.4823 32.3752 35.4823 32.4434C35.4823 32.5116 35.4532 32.5861 35.3863 32.6478C35.3181 32.7107 35.2173 32.7524 35.1046 32.7524H32.4718H31.9718V33.2524V35.6793C31.9718 35.7476 31.9428 35.8221 31.8758 35.8837C31.8076 35.9467 31.7069 35.9883 31.5942 35.9883C31.4815 35.9883 31.3807 35.9467 31.3125 35.8837C31.2456 35.8221 31.2165 35.7476 31.2165 35.6793V33.2524V32.7524H30.7165H28.0837C27.971 32.7524 27.8703 32.7107 27.802 32.6478C27.7351 32.5861 27.7061 32.5116 27.7061 32.4434C27.7061 32.3752 27.7351 32.3006 27.802 32.239C27.8703 32.176 27.971 32.1344 28.0837 32.1344H30.7165H31.2165V31.6344V29.2074C31.2165 29.1392 31.2456 29.0647 31.3125 29.003C31.3807 28.9401 31.4815 28.8984 31.5942 28.8984C31.7069 28.8984 31.8076 28.9401 31.8758 29.003C31.9428 29.0647 31.9718 29.1392 31.9718 29.2074V31.6344Z" fill="#37474F" stroke="#37474F"/>
<path d="M17.5876 21.9263C18.2339 21.9263 18.7578 21.4434 18.7578 20.8477C18.7578 20.252 18.2339 19.769 17.5876 19.769C16.9414 19.769 16.4175 20.252 16.4175 20.8477C16.4175 21.4434 16.9414 21.9263 17.5876 21.9263Z" fill="#37474F"/>
<path d="M17.5876 26.2413C18.2339 26.2413 18.7578 25.7584 18.7578 25.1626C18.7578 24.5669 18.2339 24.084 17.5876 24.084C16.9414 24.084 16.4175 24.5669 16.4175 25.1626C16.4175 25.7584 16.9414 26.2413 17.5876 26.2413Z" fill="#37474F"/>
<path d="M23.4382 21.9263C24.0845 21.9263 24.6084 21.4434 24.6084 20.8477C24.6084 20.252 24.0845 19.769 23.4382 19.769C22.792 19.769 22.2681 20.252 22.2681 20.8477C22.2681 21.4434 22.792 21.9263 23.4382 21.9263Z" fill="#37474F"/>
<path d="M23.4382 26.2413C24.0845 26.2413 24.6084 25.7584 24.6084 25.1626C24.6084 24.5669 24.0845 24.084 23.4382 24.084C22.792 24.084 22.2681 24.5669 22.2681 25.1626C22.2681 25.7584 22.792 26.2413 23.4382 26.2413Z" fill="#37474F"/>
<path d="M23.4382 30.5557C24.0845 30.5557 24.6084 30.0728 24.6084 29.4771C24.6084 28.8814 24.0845 28.3984 23.4382 28.3984C22.792 28.3984 22.2681 28.8814 22.2681 29.4771C22.2681 30.0728 22.792 30.5557 23.4382 30.5557Z" fill="#37474F"/>
<path d="M29.2893 21.9263C29.9356 21.9263 30.4595 21.4434 30.4595 20.8477C30.4595 20.252 29.9356 19.769 29.2893 19.769C28.643 19.769 28.1191 20.252 28.1191 20.8477C28.1191 21.4434 28.643 21.9263 29.2893 21.9263Z" fill="#37474F"/>
<path d="M29.2893 26.2413C29.9356 26.2413 30.4595 25.7584 30.4595 25.1626C30.4595 24.5669 29.9356 24.084 29.2893 24.084C28.643 24.084 28.1191 24.5669 28.1191 25.1626C28.1191 25.7584 28.643 26.2413 29.2893 26.2413Z" fill="#37474F"/>
<path d="M17.5876 30.5557C18.2339 30.5557 18.7578 30.0728 18.7578 29.4771C18.7578 28.8814 18.2339 28.3984 17.5876 28.3984C16.9414 28.3984 16.4175 28.8814 16.4175 29.4771C16.4175 30.0728 16.9414 30.5557 17.5876 30.5557Z" fill="#37474F"/>
<path d="M27.8264 16.533V16.3389C28.9595 16.3179 30.0757 16.5947 31.0443 17.1371C31.4672 17.4189 31.8385 17.7612 32.1443 18.151C32.6401 18.8607 32.919 19.6805 32.9517 20.5241C33.0842 22.0669 33.131 23.615 33.0921 25.1623V26.5861C33.0905 26.6927 33.1122 26.7986 33.1557 26.8974C33.1993 26.9962 33.2639 27.0859 33.3457 27.1614C33.4275 27.2368 33.5248 27.2963 33.632 27.3364C33.7392 27.3766 33.8541 27.3965 33.9697 27.3951C34.2005 27.3951 34.422 27.3113 34.5862 27.1619C34.7505 27.0126 34.8443 26.8096 34.8474 26.5969V25.1083C34.8474 23.1344 34.8474 21.5811 34.7069 20.3515C34.6309 19.2237 34.2267 18.1357 33.5368 17.2018C33.1267 16.6728 32.6245 16.21 32.0507 15.8319C30.7776 15.1015 29.3022 14.7269 27.803 14.7533V13.3402C27.803 13.1257 27.7105 12.9199 27.5459 12.7682C27.3814 12.6165 27.1581 12.5312 26.9254 12.5312C26.6926 12.5312 26.4694 12.6165 26.3048 12.7682C26.1402 12.9199 26.0477 13.1257 26.0477 13.3402V14.6994H20.782V13.3402C20.782 13.1257 20.6896 12.9199 20.525 12.7682C20.3604 12.6165 20.1372 12.5312 19.9044 12.5312C19.6716 12.5312 19.4484 12.6165 19.2838 12.7682C19.1193 12.9199 19.0268 13.1257 19.0268 13.3402V14.7533C17.5276 14.7269 16.0522 15.1015 14.7791 15.8319C14.2052 16.21 13.7031 16.6728 13.293 17.2018C12.6031 18.1357 12.1988 19.2237 12.1228 20.3515C11.9824 21.5811 11.9824 23.1344 11.9824 25.1083V25.2162C11.9824 27.1901 11.9824 28.7434 12.1228 29.973C12.1988 31.1008 12.6031 32.1888 13.293 33.1227C13.7031 33.6517 14.2052 34.1145 14.7791 34.4926C15.7923 35.1286 16.9726 35.5012 18.196 35.5712C19.53 35.7007 21.215 35.7007 23.3564 35.7007H24.9712C25.204 35.7007 25.4272 35.6154 25.5918 35.4637C25.7564 35.312 25.8488 35.1062 25.8488 34.8917C25.8488 34.6771 25.7564 34.4714 25.5918 34.3197C25.4272 34.1679 25.204 34.0827 24.9712 34.0827H23.4032C21.7247 34.1186 20.0452 34.0754 18.3715 33.9533C17.4564 33.9231 16.567 33.666 15.7971 33.209C15.3743 32.9271 15.003 32.5848 14.6972 32.195C14.2014 31.4854 13.9225 30.6656 13.8898 29.822C13.7025 26.7323 13.7025 23.6354 13.8898 20.5456C13.9225 19.7021 14.2014 18.8822 14.6972 18.1726C15.003 17.7828 15.3743 17.4405 15.7971 17.1587C16.7658 16.6163 17.882 16.3395 19.0151 16.3605V16.5546C19.0151 16.7692 19.1075 16.9749 19.2721 17.1266C19.4367 17.2784 19.6599 17.3636 19.8927 17.3636C20.1255 17.3636 20.3487 17.2784 20.5133 17.1266C20.6779 16.9749 20.7703 16.7692 20.7703 16.5546V16.2957H26.036V16.5546C26.036 16.7692 26.1285 16.9749 26.2931 17.1266C26.4577 17.2784 26.6809 17.3636 26.9137 17.3636C27.1464 17.3636 27.3697 17.2784 27.5342 17.1266C27.6988 16.9749 27.7913 16.7692 27.7913 16.5546L27.8264 16.533Z" fill="#37474F"/>
</g>
</g>
<defs>
<clipPath id="clip0_4727_1155">
<rect x="4.0293" y="4.48828" width="40" height="40" rx="20" fill="white"/>
</clipPath>
<clipPath id="clip1_4727_1155">
<rect width="24" height="24" fill="white" transform="translate(12.0293 12.4883)"/>
</clipPath>
</defs>
</svg>
