<svg width="41" height="41" viewBox="0 0 41 41" fill="none" xmlns="http://www.w3.org/2000/svg">
<g clip-path="url(#clip0_4606_1141)">
<path d="M25.562 19.0162C25.8536 18.722 25.8515 18.2472 25.5573 17.9556C25.2631 17.664 24.7882 17.6661 24.4966 17.9603L22.7493 19.7233C22.0402 20.4388 21.5521 20.9296 21.1386 21.2617C20.7369 21.5843 20.4789 21.695 20.2478 21.7244C20.1027 21.7429 19.9559 21.7429 19.8108 21.7244C19.5797 21.695 19.3217 21.5843 18.92 21.2617C18.5065 20.9296 18.0184 20.4388 17.3093 19.7233L15.562 17.9603C15.2704 17.6661 14.7955 17.664 14.5013 17.9556C14.2071 18.2472 14.205 18.722 14.4966 19.0162L16.2754 20.811C16.9453 21.4869 17.4929 22.0394 17.9808 22.4312C18.4881 22.8387 19.003 23.1336 19.6211 23.2124C19.8922 23.2469 20.1664 23.2469 20.4375 23.2124C21.0556 23.1336 21.5705 22.8387 22.0778 22.4312C22.5657 22.0394 23.1133 21.4869 23.7832 20.811L25.562 19.0162Z" fill="#2D264B"/>
</g>
<defs>
<clipPath id="clip0_4606_1141">
<rect x="0.0292969" y="0.488281" width="40" height="40" rx="20" fill="white"/>
</clipPath>
</defs>
</svg>
