<svg width="49" height="39" viewBox="0 0 49 39" fill="none" xmlns="http://www.w3.org/2000/svg">
<g clip-path="url(#clip0_4779_5024)">
<path d="M21.5605 26.5203L21.2876 25.8218L21.5605 26.5203ZM17.5041 27.2993L17.1291 27.9488L17.1291 27.9488L17.5041 27.2993ZM16.1505 23.3969L15.409 23.5098L16.1505 23.3969ZM16.6408 20.7946L17.2903 21.1696L16.6408 20.7946ZM16.0566 22.0319L15.3196 21.893H15.3196L16.0566 22.0319ZM23.569 24.7946L24.2185 25.1696L23.569 24.7946ZM22.7895 25.9191L23.2783 26.488H23.2783L22.7895 25.9191ZM20.4392 14.2155L19.7897 13.8405L20.4392 14.2155ZM31.4392 28.5014C31.8534 28.5014 32.1892 28.1656 32.1892 27.7514C32.1892 27.3372 31.8534 27.0014 31.4392 27.0014V28.5014ZM25.4392 27.0014C25.025 27.0014 24.6892 27.3372 24.6892 27.7514C24.6892 28.1656 25.025 28.5014 25.4392 28.5014V27.0014ZM26.7179 17.8405L22.9194 24.4196L24.2185 25.1696L28.0169 18.5905L26.7179 17.8405ZM17.2903 21.1696L21.0887 14.5905L19.7897 13.8405L15.9912 20.4196L17.2903 21.1696ZM21.2876 25.8218C20.1911 26.2502 19.4443 26.5399 18.8678 26.6746C18.311 26.8047 18.0583 26.7532 17.8791 26.6498L17.1291 27.9488C17.7824 28.326 18.4832 28.3049 19.2091 28.1353C19.9154 27.9703 20.7806 27.6303 21.8334 27.2189L21.2876 25.8218ZM15.409 23.5098C15.5792 24.6272 15.7173 25.5465 15.9276 26.2407C16.1437 26.9541 16.4758 27.5716 17.1291 27.9488L17.8791 26.6498C17.6999 26.5463 17.5289 26.3532 17.3632 25.8059C17.1916 25.2393 17.0692 24.4477 16.8919 23.2839L15.409 23.5098ZM15.9912 20.4196C15.6694 20.977 15.4118 21.4038 15.3196 21.893L16.7936 22.1707C16.8276 21.9905 16.9173 21.8156 17.2903 21.1696L15.9912 20.4196ZM16.8919 23.2839C16.7796 22.5465 16.7597 22.3509 16.7936 22.1707L15.3196 21.893C15.2274 22.3822 15.3121 22.8735 15.409 23.5098L16.8919 23.2839ZM22.9194 24.4196C22.5465 25.0656 22.4398 25.2308 22.3008 25.3503L23.2783 26.488C23.6559 26.1635 23.8967 25.727 24.2185 25.1696L22.9194 24.4196ZM21.8334 27.2189C22.4329 26.9847 22.9007 26.8124 23.2783 26.488L22.3008 25.3503C22.1617 25.4698 21.9823 25.5503 21.2876 25.8218L21.8334 27.2189ZM25.5283 13.4009C26.3632 13.8829 26.9232 14.2081 27.309 14.5059C27.6776 14.7903 27.7951 14.9819 27.8428 15.1599L29.2916 14.7717C29.1249 14.1495 28.7269 13.7053 28.2254 13.3183C27.7412 12.9446 27.0764 12.5627 26.2783 12.1019L25.5283 13.4009ZM28.0169 18.5905C28.4777 17.7924 28.8624 17.1292 29.095 16.5635C29.3358 15.9776 29.4584 15.3939 29.2916 14.7717L27.8428 15.1599C27.8905 15.338 27.8846 15.5626 27.7076 15.9933C27.5223 16.4441 27.1999 17.0057 26.7179 17.8405L28.0169 18.5905ZM26.2783 12.1019C25.4802 11.6411 24.817 11.2564 24.2513 11.0239C23.6654 10.7831 23.0817 10.6605 22.4595 10.8272L22.8477 12.2761C23.0257 12.2284 23.2504 12.2343 23.681 12.4113C24.1318 12.5965 24.6934 12.9189 25.5283 13.4009L26.2783 12.1019ZM21.0887 14.5905C21.5707 13.7557 21.8959 13.1957 22.1936 12.8098C22.4781 12.4412 22.6697 12.3238 22.8477 12.2761L22.4595 10.8272C21.8373 10.9939 21.3931 11.3919 21.0061 11.8934C20.6324 12.3776 20.2505 13.0424 19.7897 13.8405L21.0887 14.5905ZM27.7424 17.566L20.8142 13.566L20.0642 14.865L26.9924 18.865L27.7424 17.566ZM31.4392 27.0014H25.4392V28.5014H31.4392V27.0014Z" fill="#546E7A"/>
</g>
<defs>
<clipPath id="clip0_4779_5024">
<rect x="4.0293" y="-0.499512" width="40" height="40" rx="20" fill="white"/>
</clipPath>
</defs>
</svg>
