<svg width="138" height="50" viewBox="0 0 138 50" fill="none" xmlns="http://www.w3.org/2000/svg">
<path d="M53.0693 30.5283C53.0693 32.6883 52.296 34.4749 50.7493 35.8883C49.2026 37.3016 47.1626 38.0083 44.6293 38.0083C43.2693 38.0083 41.816 37.8616 40.2693 37.5683C38.7493 37.2749 37.5226 36.9016 36.5893 36.4483L37.6293 33.0483C40.2426 34.0883 42.416 34.6083 44.1493 34.6083C45.8826 34.6083 47.1893 34.2349 48.0693 33.4883C48.9493 32.7149 49.3893 31.7416 49.3893 30.5683C49.3893 29.3949 48.9093 28.3949 47.9493 27.5683C46.9893 26.7416 45.736 25.9549 44.1893 25.2083C42.6693 24.4349 41.6426 23.8883 41.1093 23.5683C40.576 23.2483 39.9626 22.7683 39.2693 22.1283C37.936 20.9816 37.2693 19.3283 37.2693 17.1683C37.2693 15.0083 38.0293 13.3149 39.5493 12.0883C41.0693 10.8616 42.9226 10.2483 45.1093 10.2483C47.3226 10.2483 49.5893 10.6749 51.9093 11.5283L50.8693 14.7283C48.8426 14.0083 47.0426 13.6483 45.4693 13.6483C43.9226 13.6483 42.776 13.9683 42.0293 14.6083C41.3093 15.2216 40.9493 16.0349 40.9493 17.0483C40.9493 18.0616 41.376 18.9283 42.2293 19.6483C43.0826 20.3416 44.2026 21.0616 45.5893 21.8083C46.976 22.5283 47.9893 23.1016 48.6293 23.5283C49.296 23.9549 50.016 24.5016 50.7893 25.1683C52.3093 26.5549 53.0693 28.3416 53.0693 30.5283ZM65.2013 38.0083C62.2147 38.0083 59.988 36.9949 58.5213 34.9683C57.0813 32.9149 56.3613 30.3549 56.3613 27.2883C56.3613 24.1949 57.1347 21.6883 58.6813 19.7683C60.228 17.8216 62.348 16.8483 65.0413 16.8483C67.308 16.8483 69.028 17.4883 70.2013 18.7683C71.4013 20.0216 72.0013 21.6883 72.0013 23.7683C72.0013 24.7016 71.8013 25.9016 71.4013 27.3683H59.6413C59.6947 29.6349 60.188 31.4749 61.1213 32.8883C62.0547 34.3016 63.4413 35.0083 65.2813 35.0083C67.148 35.0083 68.908 34.6349 70.5613 33.8883L71.4813 36.3683C69.5613 37.4616 67.468 38.0083 65.2013 38.0083ZM68.7213 24.4483C68.7213 23.0083 68.428 21.8749 67.8413 21.0483C67.2547 20.2216 66.4413 19.8083 65.4013 19.8083C64.3613 19.8083 63.4947 19.9949 62.8013 20.3683C62.1347 20.7149 61.6147 21.1683 61.2413 21.7283C60.6013 22.7949 60.2013 23.7816 60.0413 24.6883L68.7213 24.7683V24.4483ZM91.7474 23.6083V37.4883H88.1474V23.8083C88.1474 22.5816 87.9874 21.6216 87.6674 20.9283C87.3474 20.2349 86.6941 19.8883 85.7074 19.8883C84.7474 19.8883 83.6941 20.1549 82.5474 20.6883C81.4274 21.1949 80.5474 21.8216 79.9074 22.5683V37.4883H76.3074V17.2483H79.3074L79.7074 19.6883C80.4541 18.9683 81.4541 18.3149 82.7074 17.7283C83.9874 17.1416 85.2141 16.8483 86.3874 16.8483C88.3874 16.8483 89.7741 17.4483 90.5474 18.6483C91.3474 19.8216 91.7474 21.4749 91.7474 23.6083ZM100.612 37.4883H96.9723V17.4083L100.612 17.0483V37.4883ZM96.2523 11.2883C96.2523 10.6216 96.4923 10.0616 96.9723 9.60828C97.4523 9.12828 98.0256 8.88828 98.6923 8.88828C99.359 8.88828 99.919 9.12828 100.372 9.60828C100.852 10.0616 101.092 10.6216 101.092 11.2883C101.092 11.9549 100.852 12.5416 100.372 13.0483C99.919 13.5283 99.359 13.7683 98.6923 13.7683C98.0256 13.7683 97.4523 13.5283 96.9723 13.0483C96.4923 12.5416 96.2523 11.9549 96.2523 11.2883ZM107.799 15.7683C107.799 13.2083 108.346 11.3816 109.439 10.2883C110.533 9.16828 112.453 8.60828 115.199 8.60828C116.719 8.60828 118.319 8.84828 119.999 9.32828L119.199 12.1683C118.133 11.9016 116.813 11.7683 115.239 11.7683C113.693 11.7683 112.666 12.0483 112.159 12.6083C111.679 13.1683 111.439 14.1816 111.439 15.6483V17.2483H116.919L116.519 20.0883H111.439V44.9283L107.799 44.5683V20.0883L104.079 19.8883L104.439 17.5283L107.799 17.2483V15.7683ZM119.42 43.2083C120.886 43.2083 122.073 42.7949 122.98 41.9683C123.913 41.1416 124.726 39.6749 125.42 37.5683L118.02 17.4883L121.82 17.2483L127.06 33.6883L131.78 17.2483H135.54L128.9 37.0883C127.86 40.2349 126.646 42.4883 125.26 43.8483C123.9 45.2349 122.126 45.9283 119.94 45.9283C119.06 45.9283 118.153 45.8349 117.22 45.6483L117.66 43.0883C118.086 43.1683 118.673 43.2083 119.42 43.2083Z" fill="#2B70C9"/>
<path d="M18.8708 12.5642L18.8708 12.5642C17.7178 13.1608 16.3405 13.1606 15.1875 12.5642C9.72842 9.74005 3.1792 13.718 3.1792 19.858C3.1792 21.7657 3.96447 26.6002 5.35524 30.9539C6.05111 33.1322 6.90424 35.2088 7.89761 36.7459C8.88061 38.267 10.0526 39.3382 11.4067 39.3382C12.355 39.3382 13.2325 38.8528 14.0492 37.9393C14.8638 37.0282 15.6371 35.6711 16.3861 33.8727C16.6225 33.3051 17.4359 33.3051 17.6722 33.8727L17.6723 33.8727C18.4213 35.6711 19.1946 37.0282 20.0092 37.9393C20.8258 38.8528 21.7034 39.3382 22.6517 39.3382C23.9938 39.3382 25.1598 38.2745 26.1404 36.7631C27.1316 35.2354 27.9862 33.1701 28.6851 30.9991C30.0819 26.6603 30.8792 21.8255 30.8792 19.858C30.8791 13.7201 24.3322 9.73883 18.8708 12.5642ZM19.4456 33.1364L19.4456 33.1364C18.5529 30.9934 15.5058 30.9923 14.6128 33.1365L14.8436 33.2326L14.6128 33.1365C14.0299 34.5361 13.433 35.6235 12.8656 36.3563C12.5818 36.7227 12.3113 36.9928 12.0604 37.1696C11.8092 37.3466 11.5913 37.4207 11.4068 37.4207C11.1101 37.4207 10.775 37.2599 10.4046 36.9052C10.0368 36.553 9.66083 36.0346 9.28646 35.3817C8.53848 34.0774 7.82238 32.282 7.19955 30.3376C5.95242 26.4442 5.09978 22.0196 5.09978 19.8581C5.09978 15.1488 10.1261 12.1057 14.3041 14.2669C16.0106 15.1497 18.0478 15.1497 19.7543 14.2669C23.9281 12.1077 28.9585 15.1444 28.9585 19.8581C28.9585 22.0102 28.1065 26.4348 26.8596 30.3306C26.2369 32.2762 25.5209 34.0733 24.7728 35.3791C24.3984 36.0327 24.0223 36.5518 23.6543 36.9045C23.2838 37.2597 22.9485 37.4207 22.6516 37.4207C22.467 37.4207 22.2491 37.3466 21.9979 37.1696C21.7471 36.9928 21.4765 36.7227 21.1928 36.3563C20.6254 35.6235 20.0285 34.5361 19.4456 33.1364Z" fill="#2B70C9" stroke="#2B70C9" stroke-width="0.5"/>
<path d="M12.6455 15.0381C9.30035 15.0381 6.5791 17.7592 6.5791 21.1044C6.5791 21.7319 7.08777 22.2404 7.7151 22.2404C8.34243 22.2404 8.85109 21.7319 8.85109 21.1044C8.85109 19.0124 10.5534 17.3101 12.6455 17.3101C13.2728 17.3101 13.7815 16.8016 13.7815 16.1741C13.7815 15.5466 13.2728 15.0381 12.6455 15.0381Z" fill="#2B70C9" stroke="#2B70C9" stroke-width="0.5"/>
</svg>
