<svg width="48" height="48" viewBox="0 0 48 48" fill="none" xmlns="http://www.w3.org/2000/svg">
<g clip-path="url(#clip0_215_8396)">
<path d="M20.1834 30L20.5834 30.6857C22.3834 33.7714 25.9834 33.7714 27.7834 30.6857L28.1834 30M16.3662 27.5496L16.4695 27.7627C17.1333 29.1311 18.5205 30 20.0414 30H28.2623C29.5656 30 30.7785 29.3342 31.4783 28.2347C32.4661 26.6826 32.2045 24.6465 30.8564 23.3945L30.8125 23.3538C29.8972 22.5038 29.4466 21.2654 29.6015 20.026L29.6662 19.5091C30.0318 16.5838 27.7509 14 24.8029 14H23.0999C20.1555 14 17.8774 16.5806 18.2426 19.5023L18.3219 20.1372C18.4681 21.3063 18.041 22.4741 17.1751 23.2731C15.9924 24.3645 15.6638 26.1016 16.3662 27.5496Z" stroke="#37474F" stroke-width="1.5" stroke-linecap="round"/>
</g>
<defs>
<clipPath id="clip0_215_8396">
<rect x="4" y="4" width="40" height="40" rx="20" fill="white"/>
</clipPath>
</defs>
</svg>
